<?xml version="1.0" standalone="no"?>
<!DOCTYPE svg PUBLIC "-//W3C//DTD SVG 20010904//EN"
 "http://www.w3.org/TR/2001/REC-SVG-20010904/DTD/svg10.dtd">
<svg version="1.0" xmlns="http://www.w3.org/2000/svg"
 width="900.000000pt" height="858.000000pt" viewBox="0 0 900.000000 858.000000"
 preserveAspectRatio="xMidYMid meet">
<metadata>
Created by potrace 1.10, written by Peter Selinger 2001-2011
</metadata>
<g transform="translate(0.000000,858.000000) scale(0.100000,-0.100000)"
fill="#e55111" stroke="none">
<path d="M7256 8389 c-11 -35 -18 -106 -25 -249 -10 -229 -41 -344 -153 -575
-64 -132 -145 -244 -251 -347 -77 -73 -94 -82 -129 -62 -12 7 -30 16 -38 20
-8 4 -33 19 -55 33 -56 36 -77 49 -100 61 -11 6 -33 19 -50 30 -16 11 -43 26
-60 34 -16 8 -52 29 -80 45 -27 17 -60 35 -72 40 -11 5 -24 15 -28 20 -3 6
-17 11 -29 11 -13 0 -29 7 -36 15 -7 8 -20 15 -30 15 -10 0 -23 7 -30 15 -7 8
-20 15 -30 15 -10 0 -23 7 -30 15 -7 8 -19 15 -27 15 -8 0 -29 7 -46 16 -61
32 -71 37 -96 44 -14 5 -51 18 -81 30 -122 47 -136 52 -170 60 -19 4 -48 13
-65 18 -28 10 -80 24 -185 52 -25 6 -75 15 -111 19 -36 4 -72 11 -79 16 -7 4
-56 12 -109 17 -53 5 -114 11 -136 15 -76 12 -632 14 -702 3 -38 -6 -111 -15
-163 -20 -52 -5 -113 -14 -135 -19 -22 -6 -56 -11 -76 -11 -20 0 -53 -7 -72
-15 -20 -8 -49 -15 -65 -15 -16 0 -46 -7 -65 -15 -20 -8 -51 -15 -69 -15 -18
0 -42 -7 -52 -15 -11 -8 -31 -15 -45 -15 -14 -1 -37 -7 -51 -15 -14 -8 -35
-14 -47 -15 -12 0 -37 -6 -55 -14 -34 -15 -95 -38 -163 -63 -22 -8 -53 -21
-68 -29 -16 -8 -37 -14 -47 -14 -9 0 -23 -7 -30 -15 -7 -8 -19 -15 -26 -15 -8
0 -42 -14 -76 -31 -58 -29 -100 -48 -138 -63 -8 -3 -28 -15 -45 -25 -16 -11
-52 -32 -80 -47 -115 -63 -114 -62 -200 -119 -116 -77 -134 -80 -182 -37 -93
82 -106 97 -189 207 -101 135 -182 288 -211 400 -3 11 -11 34 -19 52 -8 17
-14 45 -14 63 0 17 -5 41 -11 52 -7 12 -15 58 -20 102 -4 45 -13 113 -19 151
-7 39 -10 92 -7 118 l4 49 -36 -5 c-98 -13 -198 -77 -278 -177 -33 -41 -63
-103 -63 -129 0 -10 -7 -35 -15 -54 -20 -49 -20 -267 0 -362 8 -38 15 -90 15
-115 0 -25 5 -62 11 -83 6 -21 14 -78 19 -125 4 -48 13 -116 19 -152 21 -127
41 -356 41 -458 0 -57 5 -112 11 -124 14 -27 -6 -78 -32 -78 -14 0 -210 110
-339 190 -8 5 -35 18 -60 30 -25 12 -58 28 -73 35 -16 8 -37 15 -47 15 -9 0
-34 7 -53 15 -50 21 -151 20 -172 -1 -14 -14 -14 -19 -2 -33 8 -9 17 -23 21
-31 3 -8 15 -28 26 -45 11 -16 23 -37 27 -45 4 -8 23 -42 43 -75 20 -33 46
-82 59 -110 12 -27 26 -58 31 -67 49 -91 65 -235 33 -286 -28 -43 -57 -72 -74
-72 -9 0 -22 -7 -29 -15 -7 -8 -20 -15 -30 -15 -10 0 -23 -7 -30 -15 -7 -8
-18 -15 -25 -15 -8 0 -26 -6 -42 -14 -15 -8 -46 -21 -68 -29 -87 -32 -131 -50
-157 -63 -14 -8 -33 -14 -41 -14 -9 0 -29 -7 -46 -15 -17 -8 -45 -22 -62 -30
-17 -8 -36 -15 -43 -15 -19 0 -127 -58 -153 -82 -16 -15 -23 -33 -23 -58 0
-30 8 -44 53 -86 28 -28 59 -54 67 -58 8 -3 42 -22 75 -40 33 -19 83 -46 110
-60 28 -15 64 -35 80 -46 17 -11 39 -24 50 -30 11 -6 34 -19 50 -30 17 -11 39
-24 50 -30 11 -6 34 -19 50 -30 17 -11 39 -24 50 -30 11 -6 34 -19 50 -30 17
-11 39 -24 50 -30 11 -6 34 -19 50 -30 17 -11 39 -24 50 -30 11 -6 34 -19 50
-30 17 -11 37 -23 45 -27 8 -4 42 -25 75 -48 34 -23 67 -44 75 -48 8 -4 27
-15 42 -25 46 -30 168 -107 186 -117 10 -5 50 -32 91 -60 40 -27 80 -54 89
-60 52 -31 106 -83 118 -111 8 -18 14 -67 14 -108 0 -41 7 -110 15 -153 8 -43
15 -104 15 -136 0 -32 5 -67 10 -77 6 -11 14 -61 19 -112 5 -51 14 -106 20
-121 6 -16 11 -46 11 -68 0 -22 5 -50 12 -62 7 -12 15 -44 19 -72 3 -27 12
-65 18 -82 27 -80 33 -100 38 -123 2 -14 11 -38 18 -55 8 -16 16 -42 19 -56 3
-14 18 -38 32 -53 26 -25 28 -25 46 -10 10 10 18 26 18 36 0 11 5 29 12 41 6
12 15 38 19 57 21 101 97 267 188 410 66 104 122 154 227 204 21 10 51 25 66
32 14 8 44 14 66 14 47 0 72 -26 72 -75 0 -33 31 -136 52 -175 29 -53 74 -107
115 -138 38 -29 49 -32 111 -32 l69 0 63 57 c34 31 69 71 77 88 7 16 17 37 22
45 15 26 32 103 38 165 6 79 15 88 77 81 137 -15 215 -25 251 -35 22 -6 59
-11 81 -11 23 0 58 -7 77 -15 20 -8 56 -15 80 -15 25 0 61 -7 80 -15 20 -8 55
-15 77 -15 22 0 57 -7 77 -15 19 -8 50 -15 68 -15 43 0 82 -32 88 -72 33 -207
66 -286 162 -380 26 -25 101 -58 132 -58 61 0 172 92 200 166 8 21 19 68 25
103 5 36 14 73 19 82 5 10 9 34 9 53 0 50 28 76 84 76 24 0 60 7 79 15 20 8
50 15 68 15 17 0 58 6 92 14 96 23 176 38 247 46 36 5 81 13 100 19 19 6 51
11 70 11 19 0 57 7 83 15 70 21 88 10 110 -66 10 -35 23 -77 28 -94 6 -16 15
-46 21 -65 7 -22 37 -61 84 -108 l74 -72 70 0 c82 0 123 21 184 92 59 69 72
103 103 278 7 40 11 45 37 48 52 6 257 -108 337 -188 32 -32 107 -128 136
-175 23 -36 83 -165 83 -178 0 -6 7 -21 15 -31 8 -11 15 -32 15 -46 0 -14 7
-35 15 -46 8 -10 15 -26 15 -35 0 -34 41 -109 59 -109 18 0 71 71 71 97 0 8 6
27 14 41 7 15 21 54 30 87 10 33 24 80 32 105 8 25 14 62 14 83 0 21 7 54 15
74 8 19 15 56 15 82 0 25 5 64 10 86 6 22 15 94 20 160 5 66 12 136 16 155 3
19 9 91 13 160 6 111 10 131 35 175 15 28 40 60 54 73 33 27 170 122 178 122
4 0 23 12 43 28 20 15 56 38 81 51 25 14 54 29 65 35 11 6 24 17 28 24 4 6 12
12 18 12 8 0 176 100 257 152 15 10 36 22 47 28 21 10 32 17 100 60 22 14 47
29 55 33 8 4 29 16 45 27 17 11 39 24 50 30 11 6 34 19 50 30 17 11 39 24 50
30 11 6 32 18 47 28 15 9 59 37 98 62 39 25 83 53 98 62 15 10 34 21 42 25 8
3 31 19 51 35 20 15 41 28 46 28 5 0 16 8 24 18 9 11 26 26 38 34 16 11 22 27
24 57 2 58 8 54 -333 218 -168 81 -319 153 -390 185 -71 33 -80 44 -80 101 0
62 17 161 36 205 8 18 14 43 14 55 0 13 7 32 15 43 8 10 15 28 15 40 0 11 7
29 15 40 8 10 15 25 15 32 0 7 20 54 45 105 25 52 45 104 45 116 0 21 -3 23
-47 18 -70 -7 -213 -53 -235 -75 -7 -7 -22 -12 -34 -12 -13 0 -26 -5 -29 -11
-4 -5 -17 -14 -28 -20 -23 -9 -31 -14 -105 -61 -24 -16 -45 -28 -48 -28 -2 0
-38 -20 -78 -45 -127 -77 -139 -67 -133 112 6 170 22 331 36 366 6 16 11 53
11 82 0 30 6 74 14 97 8 24 17 79 20 122 3 43 10 84 15 90 5 6 12 47 14 91 3
44 10 105 15 135 14 73 14 255 1 305 -6 22 -14 58 -18 80 -30 149 -177 310
-313 339 -14 3 -33 9 -42 12 -9 3 -18 0 -20 -7z m-2608 -1558 c1 -85 -2 -176
-8 -205 -7 -28 -15 -100 -20 -161 -15 -206 -48 -399 -82 -472 -17 -37 -24 -43
-50 -43 -37 0 -68 25 -68 54 -1 12 -7 32 -15 46 -8 14 -14 40 -15 58 0 18 -5
42 -10 53 -6 11 -15 56 -20 102 -5 45 -14 120 -20 167 -28 243 -46 519 -36
546 5 12 36 14 173 12 l168 -3 3 -154z m577 130 c55 -4 116 -14 135 -20 19 -6
51 -11 70 -11 19 0 57 -7 84 -15 27 -8 66 -15 86 -15 21 0 57 -7 80 -15 23 -8
56 -15 72 -15 16 0 38 -5 49 -10 10 -6 38 -14 61 -19 88 -18 217 -71 230 -94
15 -28 1 -101 -32 -166 -15 -31 -31 -63 -34 -71 -3 -8 -15 -28 -26 -45 -11
-16 -23 -37 -26 -45 -8 -16 -86 -112 -119 -146 -44 -44 -153 -129 -230 -178
-134 -85 -352 -184 -455 -205 -19 -4 -45 -13 -57 -19 -12 -7 -35 -12 -51 -12
-16 0 -46 -7 -65 -15 -20 -8 -52 -15 -71 -15 -19 0 -61 -7 -93 -15 -99 -26
-163 -19 -163 19 0 22 19 82 34 105 5 7 12 27 16 45 9 35 27 87 45 131 17 43
36 96 45 130 5 17 14 46 21 65 6 19 17 51 24 70 17 47 34 115 45 172 5 26 13
56 19 67 6 11 11 35 11 54 0 19 7 51 15 70 8 20 15 53 15 74 1 21 7 49 15 63
8 14 14 36 15 51 0 41 18 51 80 45 30 -3 100 -10 155 -15z m-1233 -56 c3 -27
11 -66 17 -85 6 -19 11 -53 11 -76 0 -22 7 -49 15 -60 8 -10 14 -30 15 -44 0
-22 12 -67 42 -155 5 -16 14 -46 18 -65 8 -34 17 -61 48 -145 15 -41 30 -85
51 -145 7 -19 16 -48 21 -65 10 -37 28 -90 45 -130 40 -100 51 -151 37 -173
-7 -10 -19 -10 -58 -2 -64 15 -151 39 -189 52 -16 5 -43 14 -60 18 -53 15
-120 41 -129 51 -6 5 -19 9 -29 9 -10 0 -31 6 -45 14 -15 8 -47 22 -72 32 -25
10 -52 24 -61 31 -8 7 -22 13 -30 13 -8 1 -32 12 -54 25 -22 14 -47 27 -55 31
-8 3 -22 10 -30 15 -8 5 -24 13 -36 18 -12 5 -48 27 -80 48 -32 21 -64 40 -71
43 -39 16 -205 171 -258 240 -46 61 -99 166 -110 220 -3 19 -12 49 -18 67 -15
45 2 76 55 102 25 11 49 21 55 21 6 0 24 7 39 15 16 8 39 15 50 15 12 0 35 7
50 15 16 8 45 15 65 15 20 0 53 7 72 15 20 8 61 15 91 15 30 0 67 5 82 10 15
6 75 15 132 21 58 5 112 14 121 19 9 5 68 9 131 7 l115 -2 7 -50z m-1332 -285
c8 -15 28 -62 54 -122 24 -59 126 -262 156 -313 16 -27 33 -57 37 -65 4 -8 30
-48 57 -88 28 -40 56 -83 63 -95 6 -12 31 -45 55 -73 24 -28 61 -73 83 -99 76
-91 240 -248 337 -321 53 -41 99 -74 102 -74 3 0 35 -20 72 -45 36 -25 71 -45
78 -45 8 0 19 -7 26 -15 7 -8 19 -15 27 -15 8 0 24 -5 36 -12 54 -30 254 -94
367 -117 144 -30 521 -36 572 -10 9 5 43 13 75 18 66 11 131 27 186 47 64 24
121 46 152 60 17 7 37 15 45 18 8 3 22 10 30 15 8 5 22 12 30 15 8 4 29 15 45
26 17 11 37 23 45 27 8 3 31 19 51 35 20 15 40 28 43 28 3 0 14 6 23 14 48 39
112 91 147 120 84 67 242 235 326 346 35 47 66 87 69 90 11 9 51 69 51 75 0 6
40 65 50 75 3 3 11 16 17 30 7 14 26 50 44 80 42 74 61 112 99 195 67 147 74
160 84 167 19 13 73 9 86 -7 7 -8 19 -15 27 -15 8 0 27 -6 41 -14 27 -14 144
-69 172 -80 8 -3 22 -10 30 -15 8 -5 22 -12 30 -15 8 -3 23 -10 33 -16 30 -17
50 -28 102 -55 28 -14 77 -41 110 -60 33 -19 69 -39 80 -45 11 -6 34 -19 50
-30 17 -11 37 -23 45 -27 24 -11 192 -128 222 -153 149 -130 258 -242 258
-266 0 -4 6 -15 13 -23 26 -30 47 -107 47 -167 0 -50 -4 -64 -22 -81 -34 -30
-107 -53 -166 -53 -30 0 -61 -4 -71 -10 -10 -5 -81 -12 -157 -16 -77 -4 -147
-11 -156 -16 -20 -10 -58 -78 -58 -103 0 -26 -37 -89 -62 -105 -15 -10 -63
-17 -133 -22 -148 -9 -273 -27 -313 -44 -18 -8 -43 -14 -56 -14 -13 0 -37 -7
-52 -15 -16 -8 -41 -15 -55 -15 -14 0 -34 -7 -45 -15 -10 -8 -28 -15 -39 -15
-11 0 -33 -7 -49 -15 -15 -8 -36 -15 -45 -15 -10 0 -26 -7 -37 -15 -10 -8 -27
-15 -37 -15 -11 0 -31 -6 -45 -14 -25 -13 -66 -29 -154 -62 -89 -33 -125 -47
-153 -59 -16 -7 -50 -20 -75 -30 -25 -9 -57 -23 -72 -31 -14 -8 -35 -14 -46
-14 -12 0 -23 -4 -27 -10 -3 -5 -20 -14 -38 -19 -18 -5 -57 -19 -87 -31 -30
-12 -71 -26 -90 -30 -19 -4 -48 -13 -65 -18 -85 -29 -132 -42 -150 -42 -11 0
-39 -7 -62 -15 -23 -8 -81 -17 -130 -20 -48 -3 -146 -10 -218 -14 -177 -12
-499 -12 -560 0 -27 5 -90 13 -140 17 -49 5 -100 14 -112 20 -12 7 -39 12 -60
12 -21 1 -56 7 -78 15 -22 8 -51 15 -65 15 -14 0 -36 7 -50 15 -14 8 -38 14
-53 15 -16 0 -41 6 -55 14 -15 8 -54 22 -87 31 -33 9 -73 23 -88 31 -16 8 -35
14 -42 14 -8 0 -31 7 -52 16 -79 34 -99 42 -143 59 -25 9 -58 23 -73 31 -16 8
-36 14 -45 14 -9 0 -26 7 -36 15 -11 8 -28 15 -39 15 -10 0 -31 6 -45 14 -15
8 -47 22 -72 31 -25 9 -60 23 -78 31 -18 8 -39 14 -47 14 -8 0 -29 6 -47 14
-18 7 -58 21 -88 29 -30 8 -75 21 -100 28 -25 7 -72 16 -105 20 -33 4 -82 12
-110 18 -27 5 -100 10 -161 10 -125 1 -151 12 -174 73 -27 73 -62 138 -88 166
-21 24 -39 31 -84 37 -32 3 -60 11 -63 16 -4 5 -32 9 -63 9 -31 0 -75 5 -97
11 -22 6 -67 15 -100 19 -117 15 -164 47 -165 112 -1 92 82 274 170 371 32 37
100 105 137 137 53 49 235 180 248 180 2 0 21 12 42 26 21 14 47 30 58 35 11
5 27 13 35 18 8 5 22 12 30 15 8 4 29 15 45 26 17 11 37 23 45 26 31 13 86 37
100 45 8 5 32 16 53 25 20 9 54 25 74 35 21 11 44 19 53 19 9 0 25 7 36 15 10
8 30 15 44 15 14 0 35 6 46 14 37 26 123 30 134 6z"/>
<path d="M2991 3283 c-7 -43 -17 -110 -21 -149 -5 -40 -13 -81 -19 -92 -6 -12
-11 -51 -11 -87 0 -36 -5 -75 -11 -86 -5 -11 -15 -75 -20 -142 -6 -67 -15
-126 -20 -131 -5 -6 -9 -35 -9 -65 0 -31 -7 -119 -15 -196 -17 -158 -20 -565
-4 -635 5 -25 12 -63 15 -85 8 -53 39 -117 75 -156 27 -28 33 -31 70 -25 48 8
94 53 117 113 41 113 46 154 48 403 1 135 -2 252 -7 261 -4 9 -13 86 -18 173
-5 86 -13 162 -18 168 -4 7 -11 54 -14 103 -4 50 -12 115 -18 145 -18 100 -33
194 -41 260 -4 36 -13 83 -19 105 -6 22 -11 58 -12 80 0 22 -8 57 -17 78 l-17
38 -14 -78z"/>
<path d="M6006 3333 c-3 -3 -6 -23 -6 -43 0 -20 -7 -59 -15 -86 -8 -27 -15
-67 -15 -89 0 -22 -7 -62 -15 -89 -8 -27 -15 -70 -15 -95 0 -25 -7 -71 -15
-101 -8 -30 -15 -77 -15 -104 0 -26 -6 -74 -14 -105 -8 -31 -17 -114 -22 -186
-4 -71 -9 -148 -12 -170 -10 -74 -5 -529 7 -619 18 -137 67 -208 144 -210 82
-2 129 81 153 269 21 157 18 319 -10 705 -2 30 -9 93 -15 140 -17 125 -32 246
-41 320 -5 36 -13 97 -20 135 -15 91 -38 240 -45 287 -6 37 -17 53 -29 41z"/>
<path d="M4496 2964 c-3 -63 -11 -124 -16 -134 -6 -10 -10 -67 -10 -127 0 -59
-7 -151 -15 -203 -8 -52 -15 -135 -15 -185 -1 -49 -6 -124 -11 -165 -5 -41
-14 -160 -19 -265 -5 -104 -12 -219 -15 -255 -4 -36 -9 -301 -12 -590 -3 -390
-2 -544 8 -600 6 -41 14 -109 16 -150 3 -41 11 -83 19 -94 8 -11 14 -30 14
-41 0 -11 20 -43 44 -70 42 -48 45 -49 62 -33 39 35 81 142 88 226 3 35 10 71
16 82 14 25 14 1186 0 1226 -6 16 -14 117 -20 224 -5 107 -12 211 -15 230 -5
41 -13 149 -19 278 -3 51 -8 97 -12 103 -3 6 -10 88 -14 182 -5 95 -13 195
-19 222 -6 28 -14 95 -18 149 -11 140 -28 136 -37 -10z"/>
</g>
</svg>
